<svg id="Слой_1" data-name="Слой 1" xmlns="http://www.w3.org/2000/svg" viewBox="0 0 900 865"><defs><style>.cls-1{fill:#513622;}.cls-2{fill:#bc8331;}.cls-3{fill:#9c3f01;}.cls-4{fill:#634218;}.cls-5{fill:#553922;}.cls-6{fill:#523724;}.cls-7{fill:#712401;}</style></defs><title>book</title><path class="cls-1" d="M771,171v6c-3.19,4.93-8,6.39-13.53,6.32-1.75,0-3.65-.69-5.2.77-.63.24-.91.63-.52,1.29l-.2.44c-2-1.34-3.5.19-5,1C734.23,193,722,199.37,709.69,205.66q-43.06,22-86.13,44.06c-24.13,12.31-48.34,24.49-72.45,36.85-30,15.4-60,30.94-90,46.39q-37.51,19.3-75.07,38.52-51.81,26.47-103.66,52.84c-1.78.91-3.51,2-5.65,1.63a9.76,9.76,0,0,1,1.47-1.33q33-19.63,66.12-39.2c5.35-3.16,5.41-3.05,1.5-8.1q-40-51.68-80.07-103.36-58-75-116-150Q93.85,51.72,38-20.55-3.46-74.25-44.9-128c12-3.89,24.06-7.6,36-11.7,65.15-22.39,132.09-36.94,200.27-46.16,29.34-4,58.73-7.56,88.2-10.45,2.8-.27,5.95.39,8.44-1.71h9c1.33,1,2.64,2,4,3,48.52,33.79,96.11,68.85,143.18,104.62,106.24,80.74,210,164.67,315,247C764.23,160.57,769.38,164.28,771,171Z" transform="translate(129 198)"/><path class="cls-2" d="M312.84,525.15c-21.54,10.69-42.8,22-64.68,31.9-23.53,10.68-39,4.19-51.31-13.77C182.26,522,170.77,498.87,158,476.53Q27.24,248.64-103.22,20.61c-11.94-20.88-21-43-24.83-67-.09-.56-.62-1.05-1-1.58q0-11,0-22c.27-.41.73-.79.79-1.22C-126-87.58-116.63-99.87-105.33-111a8.34,8.34,0,0,1,3.36-2c16.69-5.57,33.38-11.12,50-16.91,3.13-1.09,5.36-1.07,7.07,2Q-3.44-74.26,38-20.55,93.85,51.72,149.7,124q58,75,116,150,40,51.7,80.07,103.36c3.91,5,3.85,4.94-1.5,8.1q-33.1,19.54-66.12,39.2a9.63,9.63,0,0,0-1.46,1.33c-7.71,4.05-15.6,7.78-22.67,13a4.1,4.1,0,0,0-3.11,2.06l0,0a65.33,65.33,0,0,0-21,18.64c-3.78,5.17-6.67,10.73-6,17.47a15.48,15.48,0,0,0-.8,3.35,252.21,252.21,0,0,1-5.11,47.33c-.68,3.3.74,5.42,3.44,7a24.53,24.53,0,0,0,18.72,2.67c24.32-6.11,44.8-20.47,66.93-31.3C310.86,511.87,311.51,518.61,312.84,525.15Z" transform="translate(129 198)"/><path class="cls-3" d="M360.07,570.12a506.38,506.38,0,0,1,0,54.29c-.73,14.26-2.51,28.41-4,42.59h-1a94,94,0,0,0-8.52-21.1c-2.39-4.12-4.45-4.18-6.87-.14-1.85,3.09-3.15,6.52-5,10.39A123,123,0,0,1,321,622.8c-5.3-20.32-5-41.15-5.65-61.88-.38-12-.44-23.93-2.49-35.77-1.32-6.54-2-13.28-5.69-19.1a26.2,26.2,0,0,0-3.64-9.73c-6-10.46-13-20.08-22.9-27.25-2.72-2-2.55-3.42.62-4.77s5.93-3,9-4.39c6.34-2.84,12.08-6.93,18.79-9,15.27,7.67,25.34,20.34,32.45,35.29C354,512.71,358.28,541.18,360.07,570.12Z" transform="translate(129 198)"/><path class="cls-4" d="M309,450.94c-6.71,2-12.45,6.14-18.79,9-3,1.36-5.91,3.09-9,4.39s-3.35,2.8-.62,4.77c9.91,7.17,16.94,16.79,22.9,27.25a26.2,26.2,0,0,1,3.64,9.73c-22.13,10.83-42.61,25.19-66.93,31.3a24.53,24.53,0,0,1-18.72-2.67c-2.71-1.55-4.12-3.67-3.44-7a252.21,252.21,0,0,0,5.11-47.33A15.47,15.47,0,0,1,224,477a22,22,0,0,0,1.71-2.39c6-11.29,12.8-22,23.14-30,1.17-.9,2.28-2,2.15-3.72l0,0c1.56.11,3,0,3.11-2.06,7.07-5.18,15-8.9,22.67-13,2.13.33,3.86-.72,5.64-1.63Q334.18,397.9,386,371.48q37.57-19.19,75.07-38.52c30-15.45,60-31,90-46.39,24.11-12.36,48.31-24.54,72.45-36.85q43.09-22,86.13-44.06c12.28-6.29,24.53-12.61,36.83-18.87,1.54-.78,3-2.31,5-1-11.38,20.64-22.86,41.25-31,63.45-5.31,14.39-9.84,29-8.48,44.65a22.76,22.76,0,0,0,1,9.35c1.31,3.78-.17,5.47-3.61,7.12-28.63,13.8-57.16,27.82-85.73,41.75q-37,18-74.06,36-42.4,20.68-84.78,41.41c-24.36,11.95-48.64,24.06-73,35.94-7,3.41-14.34,6.15-20.86,10.51-.5-.42-1.18-.74-1.49-1.27-7.93-13.56-18.66-24.76-29.8-35.63-1.49-1.46-2.8-2.69-5.15-1.43C326.08,442.24,317.17,445.88,309,450.94Z" transform="translate(129 198)"/><path class="cls-4" d="M752.27,184.09l-.52,1.29C751.36,184.72,751.64,184.33,752.27,184.09Z" transform="translate(129 198)"/><path class="cls-5" d="M251,440.92c.13,1.73-1,2.82-2.15,3.72-10.33,8-17.09,18.71-23.14,30A22,22,0,0,1,224,477c-.68-6.74,2.21-12.3,6-17.47A65.33,65.33,0,0,1,251,440.92Z" transform="translate(129 198)"/><path class="cls-5" d="M254,438.9c-.11,2.09-1.55,2.16-3.11,2.06A4.1,4.1,0,0,1,254,438.9Z" transform="translate(129 198)"/><path class="cls-6" d="M371,476c6.52-4.36,13.86-7.1,20.86-10.51,24.39-11.88,48.67-24,73-35.94q42.36-20.77,84.78-41.41,37-18,74.06-36c28.57-13.93,57.09-27.95,85.73-41.75,3.44-1.66,4.92-3.35,3.61-7.12a22.76,22.76,0,0,1-1-9.35,37.21,37.21,0,0,1,13.49,3.29c3.71,1.82,4.92,5,2.22,8.15-6,7-11,14.79-19.48,19.57-85.7,48.55-174.22,91.62-262.57,135C423.16,471,400.57,482,378,493Z" transform="translate(129 198)"/><path class="cls-7" d="M371,476,378,493c6,33.54,21.67,62.4,44.08,89.49-8.29-.49-15.17-.57-22-1.4a14.41,14.41,0,0,0-13.65,5.31c-2.81,3.27-5.72,6.46-8.85,10-7-8.11-11.57-17.66-17.55-26.25-1.79-28.95-6.05-57.42-18.63-83.89-7.11-15-17.18-27.63-32.45-35.29,8.18-5.06,17.09-8.7,25.54-13.23,2.35-1.26,3.66,0,5.15,1.43,11.14,10.87,21.87,22.07,29.8,35.63C369.79,475.3,370.46,475.62,371,476Z" transform="translate(129 198)"/></svg>