<svg id="Слой_1" data-name="Слой 1" xmlns="http://www.w3.org/2000/svg" viewBox="0 0 295.45 257.15"><defs><style>.cls-1{fill:#a56640;}.cls-2{fill:#fdfdfd;}.cls-3{fill:#fafafa;}</style></defs><title>cat</title><path class="cls-1" d="M348,351.7c5.49.77,9.3-2,11.19-7.32a22.85,22.85,0,0,0,1-7.82c0-13.67,0-27.33,0-41,0-3.25.18-6.58-.44-9.73-1.33-6.8-5.56-9.7-12.21-8.93-5.1.59-8.26,4.61-8.32,10.92-.08,8.77,0,17.54,0,26.31,0,9.18-.1,18.35,0,27.53C339.25,347.34,342.51,350.93,348,351.7Zm-137-11c.13,7.09,5.15,11.56,11.15,11.19s9.57-4.67,9.68-11.85c.06-3.27.07-6.55.07-9.82,0-2.86,0-5.73,0-8.59,0-2.42,0-4.85,0-7.27,0-2.61,0-5.21,0-7.82,0-6.17.05-12.33-.06-18.48-.12-7-3.55-10.9-9.43-11.17-6.63-.31-11.23,3.41-11.37,10.6Q210.52,314.06,211,340.67Zm85.26-1.34c.09,7.55,4.31,12.5,10.43,12.52s10.58-4.93,10.62-12.35q.12-25.39,0-50.79c0-7.47-3.83-11.74-10.14-11.85-7-.12-10.74,3.75-10.87,11.67-.06,3.46-.07,6.93-.07,10.39,0,5.11,0,10.21,0,15.32s0,10.29,0,15.44C296.21,332.9,296.22,336.11,296.26,339.33Zm-42.72.88c.07,6.85,4.9,11.74,10.78,11.64,6.05-.1,10.15-4.8,10.23-12,.1-8.56,0-17.13,0-25.7s.08-17.13,0-25.7c-.09-7.51-3.77-11.54-10.3-11.56s-10.64,4-10.71,11.34Q253.27,314.19,253.54,340.21Zm25.74-215a17.51,17.51,0,0,1,9.75,10c2.11-5,5.44-7.4,8.62-10h8.58c9.84,4.42,13.74,10.56,10.79,18.57-1.35,3.65-.57,5.94,1.31,8.84q22.57,34.83,44.82,69.86c2.24,3.55,4.57,4.92,8.76,4.85,15.51-.25,31-.23,46.54,0,9.06.11,16.34,6.14,17.58,14,1.5,9.45-3,17.35-11.62,20.34-6.89,2.4-9.5,5.32-10.73,12.47-4.45,26-9,52-13.22,78.1-3.19,19.56-15.22,30.18-34.76,30.18q-78.09,0-156.18,0a25.92,25.92,0,0,1-7.85-.75c-13.5-4.15-20-14.39-22.58-27.15q-5.07-24.76-8.52-49.84c-1.83-13.25-6.1-26.2-5.15-39.81.25-3.7-2.6-2.5-4.23-2.4a18.32,18.32,0,0,1-15.33-6c-2.42-2.54-2.64-6.19-5-8.67v-4.9C145,230.19,154,226.37,166.66,227c13.62.71,27.31.06,41,.23,3,0,4.93-.87,6.52-3.37q23.28-36.48,46.66-72.91c1-1.52,1.79-2.84,1.19-5-3.15-11.36-.85-16,9.93-20.8ZM348.8,226.89c.68-1.44-.15-2.16-.69-3q-21.41-33.33-42.8-66.67c-.64-1-1.46-2.5-2.35-2.61-6.15-.79-11-3.43-14-10.57-2.59,6.64-6.55,9.36-11.67,10.07-2.64.37-3.75,1.9-5,3.84-7.76,12.16-15.61,24.26-23.4,36.41-6.77,10.54-13.49,21.12-20.77,32.53Z" transform="translate(-140.86 -125.17)"/><path class="cls-2" d="M360.1,295.56c0,13.67,0,27.33,0,41a22.85,22.85,0,0,1-1,7.82c-1.89,5.35-5.7,8.09-11.19,7.32s-8.71-4.36-8.8-10c-.14-9.18,0-18.35,0-27.53,0-8.77-.07-17.54,0-26.31.06-6.31,3.22-10.33,8.32-10.92,6.65-.77,10.88,2.13,12.21,8.93C360.28,289,360.09,292.31,360.1,295.56Z" transform="translate(-140.86 -125.17)"/><path class="cls-2" d="M348.11,223.89c.54.84,1.37,1.56.69,3H228.13c7.28-11.41,14-22,20.77-32.53,7.79-12.15,15.64-24.25,23.4-36.41,1.24-1.94,2.35-3.47,5-3.84,5.12-.71,9.08-3.43,11.67-10.07,3,7.14,7.85,9.78,14,10.57.89.11,1.71,1.61,2.35,2.61Q326.73,190.54,348.11,223.89Z" transform="translate(-140.86 -125.17)"/><path class="cls-2" d="M317.3,288.71q.13,25.4,0,50.79c0,7.42-4.42,12.37-10.62,12.35s-10.34-5-10.43-12.52c0-3.22-.05-6.43-.05-9.65,0-5.15,0-10.29,0-15.44s0-10.21,0-15.32c0-3.46,0-6.93.07-10.39.13-7.92,3.87-11.79,10.87-11.67C313.47,277,317.27,281.24,317.3,288.71Z" transform="translate(-140.86 -125.17)"/><path class="cls-3" d="M279.28,125.17h18.37c-3.18,2.57-6.51,5-8.62,10A17.51,17.51,0,0,0,279.28,125.17Z" transform="translate(-140.86 -125.17)"/><path class="cls-2" d="M274.55,288.42c.1,8.57,0,17.14,0,25.7s.08,17.14,0,25.7c-.08,7.23-4.18,11.93-10.23,12-5.88.1-10.71-4.79-10.78-11.64q-.25-26,0-52c.07-7.32,4.2-11.35,10.71-11.34S274.46,280.91,274.55,288.42Z" transform="translate(-140.86 -125.17)"/><path class="cls-3" d="M231.83,288c.11,6.15.08,12.31.06,18.48,0,2.6,0,5.21,0,7.82q0,3.63,0,7.27c0,2.86,0,5.73,0,8.59,0,3.27,0,6.55-.07,9.82-.11,7.18-3.77,11.48-9.68,11.85s-11-4.1-11.15-11.19q-.45-26.61,0-53.21c.14-7.19,4.74-10.91,11.37-10.6C228.28,277.13,231.71,281,231.83,288Z" transform="translate(-140.86 -125.17)"/></svg>