<?xml version="1.0" ?><!DOCTYPE svg  PUBLIC '-//W3C//DTD SVG 1.1//EN'  'http://www.w3.org/Graphics/SVG/1.1/DTD/svg11.dtd'><svg enable-background="new 0 0 500 500" height="500px" id="Layer_1" version="1.1" viewBox="0 0 500 500" width="500px" xml:space="preserve" xmlns="http://www.w3.org/2000/svg" xmlns:xlink="http://www.w3.org/1999/xlink"><path clip-rule="evenodd" d="M177.317,104.632c0,40.158,32.525,72.685,72.683,72.685  c40.158,0,72.685-32.527,72.685-72.685c0-40.158-32.526-72.683-72.685-72.683C209.842,31.949,177.317,64.474,177.317,104.632z   M177.317,259.086v163.538h-22.715c-12.536,0-22.713,10.175-22.713,22.716c0,12.536,10.177,22.711,22.713,22.711h190.794  c12.537,0,22.717-10.175,22.717-22.711c0-12.541-10.18-22.716-22.717-22.716h-22.711V233.648c0-11.083-8.91-19.991-19.991-19.991  H154.602c-12.536,0-22.713,10.177-22.713,22.713c0,12.538,10.177,22.715,22.713,22.715H177.317z" fill="#010101" fill-rule="evenodd"/></svg>