<svg id="Слой_1" data-name="Слой 1" xmlns="http://www.w3.org/2000/svg" viewBox="0 0 363.74 361.02"><defs><style>.cls-1{fill:#a56640;}.cls-2{fill:#fdfdfd;}.cls-3{fill:#fff;}</style></defs><title>lupa</title><path class="cls-1" d="M469,396.3v43.92H428.1c0-.09.06-.24.11-.25,4.61-.71,8.53-3,12.24-5.61a38.57,38.57,0,0,0,4.74-4q7.13-7.12,14.21-14.26a40.17,40.17,0,0,0,5.82-7.53c2.27-3.77,3.89-7.74,3.55-12.27Z" transform="translate(-105.25 -79.2)"/><path class="cls-1" d="M254.25,128.88a99.45,99.45,0,1,1-99.45,99.43A99.3,99.3,0,0,1,254.25,128.88Z" transform="translate(-105.25 -79.2)"/><path class="cls-1" d="M259.41,79.2H469V396.3h-.22a7,7,0,0,0-2.39-4.56q-41.94-41.89-83.85-83.82l-.42-.43c-1.33-1.36-1.19-.9-.26-2.46A148.87,148.87,0,0,0,274.47,80.78c-4.6-.63-9.23-1-13.86-1.24-.4,0-.8-.06-1.2-.1Z" transform="translate(-105.25 -79.2)"/><path class="cls-2" d="M259.41,79.2v.24h-10.3V79.2Z" transform="translate(-105.25 -79.2)"/><path class="cls-1" d="M249.11,79.2v.24c-2.72.21-5.43.39-8.14.61a144.55,144.55,0,0,0-36,7.73,149.09,149.09,0,0,0-94.53,102,146.74,146.74,0,0,0-4.41,25,30.24,30.24,0,0,1-.44,4.65h-.38V79.2Z" transform="translate(-105.25 -79.2)"/><path class="cls-1" d="M336.55,353.65a6.44,6.44,0,0,0,.64.64q41.49,41.49,83,83a8.33,8.33,0,0,0,4.27,2.7s0,.15,0,.24H105.25V239.11c.15-.21.38-.41.53-.08a3.53,3.53,0,0,1,.13,1c1.75,21.2,7.45,41.26,17.89,59.8q31.85,56.56,94.78,73a140.54,140.54,0,0,0,40.65,4.25,147.87,147.87,0,0,0,74.82-23.07,6.4,6.4,0,0,0,.89-.57C335.54,353,336.06,353,336.55,353.65Z" transform="translate(-105.25 -79.2)"/><path class="cls-2" d="M105.25,234.27a6.89,6.89,0,0,1,.42,3h-.42Z" transform="translate(-105.25 -79.2)"/><path class="cls-2" d="M105.63,219.43a3.77,3.77,0,0,1-.38,2.42v-2.42Z" transform="translate(-105.25 -79.2)"/><path class="cls-3" d="M105.25,237.3h.42a1.9,1.9,0,0,1,.12,1.15c-.08.47-.32.35-.54.07Z" transform="translate(-105.25 -79.2)"/></svg>