<svg id="twitter" data-name="Слой 1" xmlns="http://www.w3.org/2000/svg" viewBox="0 0 309.24 253.19"><defs><style>.cls-1{fill:#a9a9a9;}</style></defs><title>twitter</title><path class="cls-1" d="M421.26,99.74c-2.21,7.05-5.18,13.37-9.72,18.72s-9.35,10.21-13.87,15.11c10.53-1.12,21-5,31.61-8.51,0,.65.07.89,0,1-.47.78-.94,1.56-1.48,2.29a123.58,123.58,0,0,1-23.91,25c-3.64,2.84-4.9,5.76-4.92,10.16a190.6,190.6,0,0,1-17,78.22,180.68,180.68,0,0,1-59.56,73.37c-36.85,26.76-78.61,34.94-123.16,31.82-26.36-1.85-50.69-10.55-73.66-23.3-1.88-1-3.67-2.23-5.5-3.36l.24-.81c16.24.17,32.4.16,48.19-4.51a138.35,138.35,0,0,0,44-22.05c-13.89-1.49-26.2-5.24-36.77-13.35s-18.14-18.17-22.09-30.9c4.86,0,9.21.12,13.54,0s8.47-.61,12.7-.92l.09-1.17a62.18,62.18,0,0,1-35.38-22.84c-8.91-11.57-14.19-24.68-13.48-40.31a62.17,62.17,0,0,0,27,7.37c-12.8-10.07-21.64-22.63-25-38.57A65.24,65.24,0,0,1,140,105.89c35,40.23,78.22,63.34,131.7,66.79l-.49-3.86c-4.2-33.87,13-57.38,36.29-68.43,5.95-2.82,12.67-4,19-6H341.1c1.88.31,3.78.55,5.65.92a60.88,60.88,0,0,1,30.3,15.27c3.12,2.93,6.3,3.91,10.2,2.44,9.47-3.57,18.91-7.21,28.36-10.85C417.52,101.45,419.38,100.56,421.26,99.74Z" transform="translate(-120.07 -94.41)"/></svg>