<svg id="Слой_1" data-name="Слой 1" xmlns="http://www.w3.org/2000/svg" viewBox="0 0 309.22 253.16"><defs><style>.cls-1{fill:#fff;}</style></defs><title>twitter_w</title><path class="cls-1" d="M301.19,5.33C299,12.38,296,18.7,291.47,24s-9.35,10.21-13.87,15.11c10.53-1.12,21-5,31.61-8.51,0,.65.07.89,0,1-.47.78-.94,1.56-1.48,2.29a123.58,123.58,0,0,1-23.91,25c-3.64,2.84-4.9,5.76-4.92,10.16a190.6,190.6,0,0,1-17,78.22,180.68,180.68,0,0,1-59.56,73.37c-36.85,26.76-78.61,34.94-123.16,31.82C52.82,250.66,28.49,242,5.52,229.21c-1.88-1-3.67-2.23-5.5-3.36L.26,225c16.24.17,32.4.16,48.19-4.51a138.35,138.35,0,0,0,44-22c-13.89-1.49-26.2-5.24-36.77-13.35S37.54,167,33.59,154.23c4.86,0,9.21.12,13.54,0s8.47-.61,12.7-.92l.09-1.17A62.18,62.18,0,0,1,24.54,129.3C15.63,117.73,10.35,104.62,11.06,89a62.17,62.17,0,0,0,27,7.37c-12.8-10.07-21.64-22.63-25-38.57a65.24,65.24,0,0,1,6.87-46.31c35,40.23,78.22,63.34,131.7,66.79l-.49-3.86C146.94,40.54,164.14,17,187.43,6c6-2.82,12.67-4,19-6H221c1.88.31,3.78.55,5.65.92A60.88,60.88,0,0,1,257,16.17c3.12,2.93,6.3,3.91,10.2,2.44,9.47-3.57,18.91-7.21,28.36-10.85C297.45,7,299.31,6.15,301.19,5.33Z" transform="translate(-0.02 0.02)"/></svg>