<?xml version="1.0" encoding="utf-8"?>
<!-- Generator: Adobe Illustrator 21.0.2, SVG Export Plug-In . SVG Version: 6.00 Build 0)  -->
<svg version="1.1" id="Слой_1" xmlns="http://www.w3.org/2000/svg" xmlns:xlink="http://www.w3.org/1999/xlink" x="0px" y="0px"
	 viewBox="0 0 311.1 177.6" style="enable-background:new 0 0 311.1 177.6;" xml:space="preserve">
<style type="text/css">
	.st0{fill:#A9A9A9;}
	.st1{fill:#FEFEFE;}
</style>
<title>VK</title>
<path class="st0" d="M309.1,158.5c2.2,3.8,2,7.9,1.7,12.1c-0.2,1.3-1,2.5-2.1,3.2c-2.7,2.3-6.1,3.5-9.6,3.3
	c-8.1-0.1-16.3,0.2-24.5,0.2c-6.3,0-12.7,0.3-19,0.2c-0.3-0.1-0.6,0-0.9,0.1h-4.8c-0.5-0.6-1.2-0.4-1.7-0.6
	c-6-1.4-11.5-4.2-16.3-8.1c-4.2-3.6-8.2-7.5-11.8-11.7c-3.7-4.1-7.3-8.4-11-12.5c-2.8-3.3-6.2-5.9-10-7.9c-3.5-1.6-6.2-1.1-9,1.4
	c-3.6,3.2-5.5,7.3-6.7,11.9c-1.1,5.2-1.7,10.4-1.6,15.7c-0.1,5.3-2.4,8.5-7,9.9c-1.5,0.5-3.1,0.8-4.7,0.8c-7.3,0-14.7,0-22,0.1
	c-3.5,0-7-0.2-10.4-0.8c-11.6-1.9-22.8-5.9-32.9-12c-12.4-7.4-24.2-15.7-33.7-26.8c-7.5-8.8-14.4-18.1-21-27.6
	c-17-24.4-30.9-50.5-43.4-77.4C4.4,27.1,2.2,22,0.1,16.8V13C0.7,9.9,3,8.6,5.8,8c1.8-0.4,3.6-0.6,5.4-0.6c9.3,0,18.5-0.1,27.7,0
	c4.8,0,9.5-0.5,14.3-0.4c6,0.1,11.4,3.7,13.7,9.3C71.7,28,77.1,39.4,83.2,50.4c3,5.5,5.6,11.1,8.9,16.4c2.7,4.6,5.9,8.9,9.4,12.9
	c2,2.2,4.4,4.1,7,5.6c1.5,0.8,3.2,1.1,4.9,0.8c1.5-0.2,2.9-1.2,3.6-2.6c1.9-3.4,3-7.1,3.4-11c1-8.3,2-16.6,1.6-24.9
	c-0.4-7.5-0.8-15-2.8-22.3c-1.2-5-5-9-9.9-10.3c-1.6-0.5-3.1-0.9-4.8-1.3c-2.2-0.5-2.8-1.8-1.5-3.7c2.3-3.4,5.6-6,9.5-7.4
	c4-1.4,8.2-2.2,12.4-2.3c10.1-0.4,20.3-0.4,30.5-0.3c4.8-0.1,9.7,0.3,14.4,1.2c8.9,1.9,11.5,4.8,12.9,13.2c1,5.6,0.5,11.4,0.2,17.1
	c0,0.3-0.1,0.6-0.1,1c0.1,5.2-0.4,10.4-0.4,15.7c0.1,6.9-0.4,13.8-0.3,20.7c0.1,2.7,0.3,5.4,0.7,8c0.3,2.2,1.2,4.3,2.5,6.1
	c2.1,2.9,5.2,3.5,8.1,1.5c4.8-3.5,8.9-7.8,12.2-12.8c8.1-11.4,15.3-23.4,21.5-35.9c3.4-6.9,6.4-13.9,9.2-21c2.1-5.1,4.8-6.9,10.3-7
	c1.9,0,3.8,0,5.7,0c13.8,0.2,27.6-0.4,41.4-0.4c2.9,0,5.9-0.5,8.8,0c2.1,0.4,4.1,1.1,5.9,2.1c1.3,0.8,2.2,2.1,2.4,3.7
	c0.6,4.8-0.3,9.6-2.5,13.9c-4.5,9.7-10.5,18.5-16.7,27.1c-6.7,9.4-14,18.3-20.9,27.5c-3,3.8-5.7,7.9-8.1,12.1
	c-2.9,5.5-2.3,10,1.7,14.8c4.4,5.2,9.5,9.6,14.4,14.3s9.9,9.6,14.5,14.6c3.9,4.2,7.6,8.7,11,13.3C306,153.3,307.6,155.9,309.1,158.5
	z"/>
<path class="st1" d="M152.9,177.6c-50.5,0-100.9,0-151.4,0c-1.2,0-1.5-0.3-1.5-1.5C0,123.1,0,69.9,0,16.8c0.5,1.8,0.6,3.6,1.3,5.3
	c3.4,7.9,7,15.7,10.8,23.5c4.4,9.1,9.2,18,14.1,26.8c4.6,8.3,9.3,16.6,14.5,24.6c6.6,10.2,13.7,20.2,21.2,29.8
	c4.1,5.3,8.2,10.8,13,15.5c5.3,5.3,11,10,17.1,14.3c10.4,7.1,21,13.6,33.2,17.2c6.3,1.9,12.6,3.3,19.1,3.3h8.7L152.9,177.6z"/>
<path class="st1" d="M12.1,45.6C8.4,37.8,4.8,30,1.3,22.1c-0.7-1.7-0.8-3.5-1.3-5.3C2.1,22,4.3,27.1,6.7,32.2
	c12.5,26.9,26.4,53,43.4,77.4c6.6,9.5,13.5,18.8,21,27.6c9.5,11.1,21.3,19.4,33.7,26.8c10.1,6,21.2,10.1,32.8,12
	c3.4,0.6,6.9,0.8,10.4,0.8c7.3,0,14.7-0.1,22-0.1c1.6,0,3.2-0.3,4.7-0.8c4.6-1.5,6.9-4.6,7-9.9c-0.1-5.3,0.5-10.6,1.6-15.7
	c1.2-4.6,3.1-8.7,6.7-11.9c2.8-2.5,5.5-3.1,9-1.4c3.8,2,7.2,4.6,10,7.9c3.8,4.1,7.3,8.3,11,12.5c3.7,4.2,7.6,8.1,11.9,11.7
	c4.8,3.9,10.3,6.6,16.3,8.1c0.6,0.1,1.3,0,1.7,0.6c-7.5-0.5-13.7-4-19.3-8.7c-3.7-3.3-7.2-6.8-10.5-10.5c-4.2-4.5-8-9.4-12.3-13.9
	c-2.2-2.4-4.7-4.4-7.5-6.1c-4.2-2.5-7.1-2.2-10.5,1.2c-2.1,2.1-3.7,4.6-4.7,7.4c-1.7,5.3-2.6,10.8-2.6,16.4c0,2.2-0.2,4.4-0.7,6.6
	c-1.1,4.5-5.6,6.7-8.8,7c-2,0.2-4.1,0.2-6.1,0.1h-14h-8.7c-6.5,0-12.8-1.5-19.1-3.3c-12.2-3.6-22.8-10.1-33.2-17.2
	c-6.1-4.2-11.8-9-17.1-14.3c-4.8-4.8-8.8-10.2-13-15.5c-7.5-9.6-14.5-19.6-21.2-29.8c-5.2-8-9.9-16.2-14.5-24.6
	C21.3,63.6,16.5,54.7,12.1,45.6z"/>
</svg>
