<?xml version="1.0" encoding="utf-8"?>
<!-- Generator: Adobe Illustrator 21.0.2, SVG Export Plug-In . SVG Version: 6.00 Build 0)  -->
<svg version="1.1" id="Слой_1" xmlns="http://www.w3.org/2000/svg" xmlns:xlink="http://www.w3.org/1999/xlink" x="0px" y="0px"
	 viewBox="0 0 327.8 187.8" style="enable-background:new 0 0 327.8 187.8;" xml:space="preserve">
<style type="text/css">
	.st0{fill:#FFFFFF;}
	.st1{fill:#FEFEFE;}
</style>
<title>VK_w</title>
<path class="st0" d="M325.8,167.2c2.3,4,2.1,8.4,1.8,12.7c-0.3,1.4-1.1,2.6-2.2,3.4c-2.8,2.4-6.4,3.7-10.1,3.5
	c-8.6-0.1-17.2,0.3-25.8,0.2c-6.7,0-13.4,0.3-20,0.2c-0.3-0.1-0.7,0-1,0.2h-5c-0.5-0.6-1.2-0.4-1.8-0.6c-6.3-1.5-12.2-4.4-17.2-8.5
	c-4.4-3.8-8.6-7.9-12.4-12.4c-3.9-4.4-7.6-8.9-11.6-13.1c-2.9-3.4-6.5-6.3-10.6-8.3c-3.7-1.7-6.5-1.2-9.5,1.5
	c-3.8,3.4-5.9,7.8-7.1,12.6c-1.2,5.4-1.8,11-1.7,16.6c-0.1,5.6-2.5,8.9-7.4,10.5c-1.6,0.5-3.2,0.8-4.9,0.8c-7.7,0-15.5,0-23.2,0.1
	c-3.7,0-7.4-0.3-11-0.9c-12.2-2-24-6.3-34.6-12.6C97.4,165.3,85,156.5,75,144.8c-7.9-9.3-15.2-19.1-22.1-29.1
	C34.8,89.9,20.2,62.3,7,34c-2.5-5.3-4.8-10.7-7-16.2v-4c0.6-3.3,3.1-4.6,6-5.3C7.9,8.2,9.7,8,11.6,8c9.8,0,19.5-0.1,29.3,0
	c5,0,10-0.5,15-0.4c6.3,0.1,12,3.9,14.4,9.8c5.1,12.2,10.9,24.2,17.3,35.8c3.2,5.8,5.9,11.7,9.4,17.3c2.9,4.9,6.2,9.4,9.9,13.6
	c2.1,2.3,4.6,4.3,7.4,5.9c1.6,0.9,3.4,1.2,5.2,0.8c1.6-0.3,3-1.3,3.8-2.7c2-3.6,3.2-7.5,3.6-11.6c1-8.7,2.1-17.5,1.7-26.3
	c-0.4-7.9-0.8-15.8-2.9-23.5c-1.2-5.3-5.2-9.5-10.5-10.9c-1.7-0.5-3.3-0.9-5-1.3c-2.4-0.6-3-1.9-1.6-3.9c2.4-3.6,5.9-6.3,10-7.8
	c4.2-1.5,8.6-2.3,13.1-2.5c10.6-0.4,21.3-0.3,32-0.2c5.1-0.1,10.2,0.3,15.2,1.2c9.3,2,12.1,5.1,13.6,13.9c1,5.9,0.6,12,0.2,18
	c0,0.3-0.1,0.7-0.1,1.1c0.1,5.5-0.4,11-0.4,16.5c0.1,7.3-0.5,14.6-0.3,21.9c0.1,2.8,0.3,5.6,0.8,8.4c0.3,2.3,1.2,4.5,2.6,6.4
	c2.3,3.1,5.5,3.7,8.6,1.6c5-3.7,9.4-8.3,12.8-13.4c8.5-12,16.1-24.6,22.6-37.8c3.5-7.3,6.7-14.7,9.7-22.1c2.2-5.4,5-7.3,10.9-7.4h6
	C280.4,8.6,295,8,309.5,8c3.1,0,6.2-0.6,9.3,0c2.2,0.4,4.3,1.2,6.3,2.3c1.4,0.8,2.4,2.2,2.5,3.9c0.6,5.1-0.3,10.2-2.6,14.7
	c-4.8,10.2-11.1,19.5-17.6,28.6c-7.1,9.9-14.7,19.3-22,29c-3.2,4-6.1,8.3-8.6,12.8c-3.1,5.8-2.5,10.5,1.8,15.6
	c4.6,5.4,10,10.1,15.2,15s10.4,10.1,15.3,15.4c4.1,4.4,8,9.1,11.6,14C322.5,161.7,324.2,164.4,325.8,167.2z"/>
<path class="st1" d="M13,48.7C9,40.5,5.2,32.3,1.6,24c-0.8-1.8-0.9-3.7-1.4-5.6c2.2,5.5,4.5,10.8,7,16.2C20.4,62.9,35,90.4,53,116.1
	c7,10,14.3,19.8,22.1,29c10,11.7,22.4,20.4,35.5,28.3c10.6,6.3,22.4,10.6,34.6,12.6c3.6,0.6,7.3,0.9,11,0.9c7.7,0,15.5-0.1,23.2-0.1
	c1.7,0,3.3-0.3,4.9-0.8c4.9-1.5,7.3-4.9,7.4-10.5c-0.1-5.6,0.5-11.1,1.7-16.6c1.2-4.9,3.3-9.2,7.1-12.6c3-2.7,5.8-3.2,9.5-1.5
	c4,2.1,7.6,4.9,10.5,8.3c4,4.3,7.7,8.8,11.6,13.1c3.9,4.4,8,8.6,12.5,12.4c5,4.1,10.9,7,17.2,8.5c0.6,0.2,1.4,0,1.8,0.6
	c-7.9-0.5-14.5-4.2-20.4-9.2c-3.9-3.5-7.6-7.2-11.1-11.1c-4.4-4.8-8.4-9.9-12.9-14.6c-2.3-2.5-5-4.6-7.9-6.4
	c-4.4-2.6-7.5-2.4-11.1,1.2c-2.3,2.2-4,4.9-5,7.8c-1.8,5.6-2.7,11.4-2.7,17.2c0,2.3-0.2,4.7-0.7,6.9c-1.2,4.8-5.9,7-9.3,7.4
	c-2.1,0.2-4.3,0.2-6.4,0.1h-23.9c-6.9,0-13.5-1.5-20.1-3.5c-12.8-3.8-24.1-10.6-35-18.1c-6.4-4.5-12.5-9.5-18-15
	c-5.1-5-9.3-10.8-13.7-16.4c-8-9.9-15.4-20.4-22.4-31.2c-5.5-8.4-10.4-17.1-15.3-25.9C22.6,67.6,17.6,58.3,13,48.7z"/>
</svg>
